<svg width="30" height="30" viewBox="0 0 30 30" fill="none" xmlns="http://www.w3.org/2000/svg">
<path d="M29.0323 15.9678L0.967741 15.9678C0.433273 15.9678 0 15.5345 0 15C0 14.4656 0.433272 14.0323 0.967741 14.0323L29.0323 14.0323C29.5667 14.0323 30 14.4656 30 15C30 15.5345 29.5667 15.9678 29.0323 15.9678Z" fill="white"/>
<path d="M14.0322 29.0323L14.0322 0.967741C14.0322 0.433273 14.4655 0 15 0C15.5344 0 15.9677 0.433272 15.9677 0.967741L15.9677 29.0323C15.9677 29.5667 15.5344 30 15 30C14.4655 30 14.0322 29.5667 14.0322 29.0323Z" fill="white"/>
</svg>
